<svg width="8" height="13" viewBox="0 0 8 13" fill="none" xmlns="http://www.w3.org/2000/svg">
<path d="M0.99623 1.4721e-05C1.12789 -0.000694851 1.25841 0.022828 1.3803 0.0692353C1.50219 0.115643 1.61305 0.184022 1.70653 0.270451L7.70908 5.86567C7.89541 6.04039 8 6.27674 8 6.52311C8 6.76947 7.89541 7.00582 7.70908 7.18055L1.70653 12.7758C1.51515 12.9285 1.26897 13.0084 1.01719 12.9993C0.765404 12.9902 0.526563 12.8929 0.348393 12.7269C0.170223 12.5608 0.0658456 12.3382 0.0561203 12.1035C0.046395 11.8688 0.132038 11.6393 0.295934 11.4609L5.58818 6.52777L0.295933 1.59465C0.155452 1.46478 0.0594399 1.29899 0.020038 1.11825C-0.0193639 0.937512 -0.000386192 0.749942 0.0745712 0.579257C0.149529 0.408573 0.277099 0.26244 0.441152 0.159336C0.605206 0.0562319 0.798374 0.000788027 0.99623 1.4721e-05V1.4721e-05Z" fill="#ADBBCC"/>
</svg>
