<svg width="8" height="13" viewBox="0 0 8 13" fill="none" xmlns="http://www.w3.org/2000/svg">
<path d="M7.00377 13C6.87211 13.0007 6.74159 12.9772 6.6197 12.9308C6.49781 12.8844 6.38695 12.816 6.29347 12.7295L0.290915 7.13433C0.104585 6.95961 -1.17553e-06 6.72325 -1.13246e-06 6.47689C-1.08938e-06 6.23053 0.104585 5.99418 0.290915 5.81945L6.29347 0.224236C6.48485 0.071462 6.73103 -0.00836868 6.98282 0.00069669C7.2346 0.00976206 7.47344 0.107055 7.65161 0.273135C7.82978 0.439215 7.93416 0.661848 7.94388 0.896545C7.95361 1.13124 7.86796 1.36072 7.70407 1.53911L2.41182 6.47223L7.70407 11.4053C7.84455 11.5352 7.94056 11.701 7.97996 11.8818C8.01936 12.0625 8.00039 12.2501 7.92543 12.4207C7.85047 12.5914 7.7229 12.7376 7.55885 12.8407C7.39479 12.9438 7.20163 12.9992 7.00377 13V13Z" fill="#ADBBCC"/>
</svg>
